# xmcd
#
# Track frame offsets: 
#        150
#        14366
#        28449
#        43279
#        57772
#        70260
#        82508
#        94746
#        108124
#        120247
#        131540
#        143657
#        157857
#        171746
#        186071
#        197828
#        210057
#        222524
#        234676
#        247094
#        260563
#        270826
#        284671
#        297231
#
# Disc length: 4152 seconds
#
# Revision: 0
# Processed by: cddbd v1.5.2PL0 Copyright (c) Steve Scherf et al.
# Submitted via: ExactAudioCopyFreeDBPlugin 1.0
#
DISCID=5e103618
DTITLE=Various Artist - Jazzin' the Blues Vol. 4 (1929-1943)
DYEAR=1998
DGENRE=Blues
TTITLE0=Phil Pavey - Arizona Blues
TTITLE1=Phil Pavey - Prairie Blues
TTITLE2=Phil Pavey - Utah Mormon Blues
TTITLE3=Phil Pavey - Broncho Bustin' Blues
TTITLE4=Willie Lewis Entertainers - Who Taught You That?
TTITLE5=Edgewater Crows - No Bonus Blues
TTITLE6=Edgewater Crows - Swinging Rhythm Around
TTITLE7=Corney Allen Grier - Corrine Corrina
TTITLE8=Corney Allen Grier - Alabama Gal
TTITLE9=Jack Sneed - Jamaica Mama
TTITLE10=Jack Sneed - Sissy in the Barn
TTITLE11=Savannah Churchill - Two-Faced Man
TTITLE12=Savannah Churchill - He's Commander-in-Chief of My Heart
TTITLE13=Savannah Churchill - Tell Me Your Blues and I Will Tell You M
TTITLE13=ine
TTITLE14=Savannah Churchill - Fat Meat Is Good Meat
TTITLE15=Beverley White - Don't Stop Now
TTITLE16=Beverley White - My Baby Comes First with Me
TTITLE17=Beverley White - Hot Bread
TTITLE18=Beverley White - If Things Don't Get Better I'm Gonna Make a 
TTITLE18=Change
TTITLE19=Billie Hayes - Man Shortage Blues
TTITLE20=Billie Hayes - Blackout Blues
TTITLE21=Billie Hayes - You Ain't Had No Blues
TTITLE22=Richard Huey - Blues Boogie Woogie
TTITLE23=Richard Huey - Hurry Sundown (See What Tomorrow Brings)
EXTD=
EXTT0=
EXTT1=
EXTT2=
EXTT3=
EXTT4=
EXTT5=
EXTT6=
EXTT7=
EXTT8=
EXTT9=
EXTT10=
EXTT11=
EXTT12=
EXTT13=
EXTT14=
EXTT15=
EXTT16=
EXTT17=
EXTT18=
EXTT19=
EXTT20=
EXTT21=
EXTT22=
EXTT23=
PLAYORDER=
